<?xml version="1.0" encoding="utf-8"?>
<!-- Generator: Adobe Illustrator 17.1.0, SVG Export Plug-In . SVG Version: 6.00 Build 0)  -->
<!DOCTYPE svg PUBLIC "-//W3C//DTD SVG 1.1//EN" "http://www.w3.org/Graphics/SVG/1.1/DTD/svg11.dtd">
<svg version="1.1" id="Calque_1" xmlns="http://www.w3.org/2000/svg" xmlns:xlink="http://www.w3.org/1999/xlink" x="0px" y="0px"
	 viewBox="0 0 60 117" enable-background="new 0 0 60 117" xml:space="preserve">
<path fill="#E47A09" d="M0.3,117c2.8,1.3,45.6-65.3,45.6-65.3c3.5-7.4,0.3-16.3-7.2-19.7c-7.4-3.5-16.3-0.3-19.7,7.2"/>
<path fill="#E47A09" d="M19,39.1c0,0-21.8,76.4-18.7,77.9"/>
<g>
	<path fill="#23A552" d="M57.8,4.3C52.9,1.9,52.9,1.9,57.8,4.3c0-0.1,2.4,1.1-0.1,4.7c-0.3,0.5-2,0.8-1.5,1.2c2,1.9,2,1.9,2,1.9
		c2.7,1.7,2.3,2.9-0.8,2.6c0,0,0,0-1.3,2c-0.9,1.3,0.6,3.1,1.1,4.4c0.3,0.7,1,1.9,0.6,2.6C57,25.2,57,25.2,57,25.2
		c-2.7-0.7-4.8-0.4-4.8,0.7c0,0,0,0-0.1,1.1C52,28.6,52,28.6,52,28.6c1.3,1.3,1.6,3.9,0.5,5.7c0,0,0,0,0.4,2.5
		c0.4,2.9-9.1-2.2-9.4-1.3c-0.2,0.5,1.7,1.2,1.7,1.7c0,0.8-1.7,1-2.3,1c-3.4,0.5-3.4,0.5-3.4,0.5c-4-1-7.3-3-7.3-4.5
		c0-1.5,0.4-3.2,1.3-3c0,0,0,0,0-0.3c0-0.6-2.2-1.5-2.6-1.8c-1.9-1.2-1.9-1.2-1.9-1.2c-1.9-1.5-1.3-2.5,1.5-2.1
		c2.7,0.4,5.6-4.3,3.8-6.4s-5.6-7.4-3.8-7.8c0,0,0,0,1.2,0.1c1.1,0,3.9,0.6,4.7-0.4c0.3-0.4-0.1-1.1-0.1-1.5c0-0.8,0.5-1.5,1.2-2
		c2.2-1.5,2.2-1.5,2.2-1.5c3.2,0.5,5,0.2,3.9-0.6c0,0,0,0-0.8-0.8c-0.3-0.3-0.5-0.7,0.1-0.5c3,0.7,3,0.7,3,0.7
		c3.2,1.3,5.8-0.3,5.6-3.6c0,0,0,0-2.8-1.4C59.8,5.3,57.8,4.3,57.8,4.3z"/>
</g>
<g>
	<path fill="#23A552" d="M57.8,4.3C52.9,1.9,52.9,1.9,57.8,4.3c0-0.1,2.4,1.1-0.1,4.7c-0.3,0.5-2,0.8-1.5,1.2c2,1.9,2,1.9,2,1.9
		c2.7,1.7,2.3,2.9-0.8,2.6c0,0,0,0-1.3,2c-0.9,1.3,0.6,3.1,1.1,4.4c0.3,0.7,1,1.9,0.6,2.6C57,25.2,57,25.2,57,25.2
		c-2.7-0.7-4.8-0.4-4.8,0.7c0,0,0,0-0.1,1.1C52,28.6,52,28.6,52,28.6c1.3,1.3,1.6,3.9,0.5,5.7c0,0,0,0,0.4,2.5
		c0.4,2.9-9.1-2.2-9.4-1.3c-0.2,0.5,1.7,1.2,1.7,1.7c0,0.8-1.7,1-2.3,1c-3.4,0.5-3.4,0.5-3.4,0.5c-4-1-7.3-3-7.3-4.5
		c0-1.5,0.4-3.2,1.3-3c0,0,0,0,0-0.3c0-0.6-2.2-1.5-2.6-1.8c-1.9-1.2-1.9-1.2-1.9-1.2c-1.9-1.5-1.3-2.5,1.5-2.1
		c2.7,0.4,5.6-4.3,3.8-6.4s-5.6-7.4-3.8-7.8c0,0,0,0,1.2,0.1c1.1,0,3.9,0.6,4.7-0.4c0.3-0.4-0.1-1.1-0.1-1.5c0-0.8,0.5-1.5,1.2-2
		c2.2-1.5,2.2-1.5,2.2-1.5c3.2,0.5,5,0.2,3.9-0.6c0,0,0,0-0.8-0.8c-0.3-0.3-0.5-0.7,0.1-0.5c3,0.7,3,0.7,3,0.7
		c3.2,1.3,5.8-0.3,5.6-3.6c0,0,0,0-2.8-1.4C59.8,5.3,57.8,4.3,57.8,4.3z"/>
</g>
<path fill="#23A552" d="M55,3C51.6,1.3,51.6,1.3,55,3c0,0,5.2,2.4,2.7,6c-0.3,0.5-2,0.8-1.5,1.2c2,1.9,2,1.9,2,1.9
	c2.7,1.7,2.3,2.9-0.8,2.6c0,0,0,0-1.3,2c-0.9,1.3,0.6,3.1,1.1,4.4c0.3,0.7,1,1.9,0.6,2.6C57,25.2,57,25.2,57,25.2
	c-2.7-0.7-4.8-0.4-4.8,0.7c0,0,0,0-0.1,1.1C52,28.6,52,28.6,52,28.6c1.3,1.3,1.6,3.9,0.5,5.7c0,0,0,0,0.4,2.5
	c0.4,2.9-9.1-2.2-9.4-1.3c-0.2,0.5,1.7,1.2,1.7,1.7c0,0.8-1.7,1-2.3,1c-3.4,0.5-4,0.3-4,0.3c-3.7-0.9-6.7-2.9-6.7-4.4
	c0-1.5,0.4-3.2,1.3-3c0,0,0,0,0-0.3c0-0.6-2.2-1.5-2.6-1.8c-1.9-1.2-1.9-1.2-1.9-1.2c-1.9-1.5-1.3-2.5,1.5-2.1
	c2.7,0.4,5.6-4.3,3.8-6.4c-1.8-2.1-5.6-7.4-3.8-7.8c0,0,0,0,1.2,0.1c1.1,0,3.9,0.6,4.7-0.4c0.3-0.4-0.1-1.1-0.1-1.5
	c0-0.8,0.5-1.5,1.2-2c2.2-1.5,2.2-1.5,2.2-1.5c3.2,0.5,5,0.2,3.9-0.6c0,0,0,0-0.8-0.8c-0.3-0.3-0.5-0.7,0.1-0.5c3,0.7,3,0.7,3,0.7
	c3.2,1.3,5.8-0.3,5.6-3.6c0,0,0,0-2.8-1.4C59.8,5.3,55,3,55,3z"/>
<path opacity="0.2" fill="#FFFFFF" d="M58.2,12.2c0,0,0,0-2-1.9c-0.4-0.4,1.2-0.8,1.5-1.2c2-2.8-0.7-4.9-2-5.7c0.3,0.2,0.6,0.3,0,0
	c-0.4-0.2-0.7-0.4-0.7-0.4c-3.4-1.6-3.4-1.6-0.2,0c-0.6-0.3-1.5-0.7-2.7-1.3c1.1,3.5,3.3,11.7,2.2,14.9c-1.5,4.1-0.6,6.5-4.6,9.8
	c-4,3.3,0,6.5,0,6.5s-2-0.6-5.5,0c-2.2,0.4-2.6,3.3-2.5,5.5c0.4,0,0.7-0.1,1.2-0.1c0.5-0.1,2.2-0.2,2.3-1c0-0.5-1.8-1.2-1.7-1.7
	c0.3-0.9,9.8,4.2,9.4,1.3c-0.4-2.5-0.4-2.5-0.4-2.5c1-1.8,0.8-4.3-0.5-5.7c0,0,0,0,0.1-1.6c0.1-1.1,0.1-1.1,0.1-1.1
	c0-1.1,2.1-1.4,4.8-0.7c0,0,0,0,0.8-1.4c0.4-0.8-0.3-1.9-0.6-2.6c-0.5-1.3-2-3-1.1-4.4c1.3-2,1.3-2,1.3-2
	C60.5,15.1,60.8,13.9,58.2,12.2z"/>
<path opacity="0.2" fill="#FFFFFF" d="M41.7,38.2l0.2,2.2c0,0,3.3,4.2,0,11c-2.9,6-31.2,51.5-41.5,65.6c0.2,0,0.6-0.3,1.2-0.8
	c0.3-0.4,0.7-0.8,1.1-1.2c9.6-11,43.2-63.3,43.2-63.3s3.8-6.9-1-14.2C45,37.5,44.7,38,41.7,38.2z"/>
</svg>
