<?xml version="1.0" encoding="utf-8"?>
<!-- Generator: Adobe Illustrator 17.1.0, SVG Export Plug-In . SVG Version: 6.00 Build 0)  -->
<!DOCTYPE svg PUBLIC "-//W3C//DTD SVG 1.1//EN" "http://www.w3.org/Graphics/SVG/1.1/DTD/svg11.dtd">
<svg version="1.1" id="Calque_1" xmlns="http://www.w3.org/2000/svg" xmlns:xlink="http://www.w3.org/1999/xlink" x="0px" y="0px"
	 viewBox="0 0 88.9 86.9" enable-background="new 0 0 88.9 86.9" xml:space="preserve">
<path fill="#FDD200" d="M88.9,44.2c-0.9,24-20.8,42.8-44.4,42.8C20.8,86.9,0.9,68.2,0,44.2C-0.9,20.2,19,0,44.5,0
	C69.9,0,89.8,20.2,88.9,44.2z"/>
<ellipse fill="#FFFFFF" cx="44.4" cy="44.1" rx="39.7" ry="40.4"/>
<path fill="#FDD200" d="M74.8,44.6c7.5,21.4-9.4,38.8-30.3,31.1C23.7,83.4,6.8,66,14.3,44.6C6.8,23.2,23.7,5.8,44.5,13.5
	C65.4,5.8,82.3,23.2,74.8,44.6z"/>
<path fill="#FDD200" d="M65.9,23.2c20.4,9.9,20.8,34.1,0.6,43.4C57.2,86.8,33,86.4,23.1,66C2.7,56.1,2.4,31.9,22.5,22.6
	C31.8,2.4,56.1,2.8,65.9,23.2z"/>
<path fill="#FFFFFF" d="M47.8,44.5c2.1,2.9-0.6,5.6-4,3.7c-3.4,1.8-6-0.9-4-3.7c-1.9-2.8,0.8-5.5,4-3.7C47,39,49.7,41.6,47.8,44.5z"
	/>
<path fill="#FFFFFF" d="M46.6,41.7c3.4,0.8,3.4,4.2-0.2,5.5c-1,3.8-4.8,4-5.4,0.2c-3.5-0.8-3.1-4.2,0.4-5.4
	C42.5,38.2,45.9,37.9,46.6,41.7z"/>
<path opacity="0.4" fill="#FFFFFF" d="M50,9.6C57.6,9.5,68,20.4,68,20.4s4.9,13,4,24.8c-1.3,17.5-7.9,23.6-11,26.3
	c-3.1,2.6-17.7,9.3-39.1,3.3c0,0-6.7-1.2-0.2,1.3c7,2.7,17.4,6.4,17.4,6.4l17.2-0.7l17.2-12.4l9.9-18l-1.8-13.3L71.6,16.3L55.2,8"/>
<g>
	<line fill="#FFDF00" x1="32.5" y1="77.6" x2="56.3" y2="11.4"/>
	
		<rect x="43.4" y="9.4" transform="matrix(0.9409 0.3387 -0.3387 0.9409 17.7124 -12.4159)" fill="#FFFFFF" width="2" height="70.4"/>
</g>
<g>
	<line fill="#FFFFFF" x1="77" y1="31.1" x2="11.5" y2="58.1"/>
	
		<rect x="43.3" y="9.2" transform="matrix(0.3809 0.9246 -0.9246 0.3809 68.6581 -13.2993)" fill="#FFFFFF" width="2" height="70.9"/>
</g>
<g>
	<line fill="#FFFFFF" x1="11.5" y1="29.5" x2="78.4" y2="59.9"/>
	
		<rect x="8.2" y="43.7" transform="matrix(0.9103 0.4141 -0.4141 0.9103 22.5433 -14.6053)" fill="#FFFFFF" width="73.5" height="2"/>
</g>
<g>
	<line fill="#FFFFFF" x1="30.9" y1="10.2" x2="58.5" y2="79"/>
	<rect x="7.6" y="43.6" transform="matrix(0.373 0.9278 -0.9278 0.373 69.3999 -13.4802)" fill="#FFFFFF" width="74.1" height="2"/>
</g>
<circle fill="#FFFFFF" cx="26.5" cy="44.5" r="1.5"/>
<circle fill="#FFFFFF" cx="25.1" cy="63.2" r="1.4"/>
<circle fill="#FFFFFF" cx="45.9" cy="72" r="0.6"/>
<circle fill="#FFFFFF" cx="58.5" cy="58.1" r="1.1"/>
<circle fill="#FFFFFF" cx="57.4" cy="30.5" r="1.1"/>
<circle fill="#FFFFFF" cx="42.9" cy="16.6" r="1.4"/>
<ellipse fill="#FFFFFF" cx="45.9" cy="26.8" rx="0.9" ry="0"/>
<circle fill="#FFFFFF" cx="28" cy="26.8" r="0.8"/>
<ellipse fill="#FFFFFF" cx="34.5" cy="31.6" rx="0.3" ry="0"/>
<circle fill="#FFFFFF" cx="69.7" cy="44.9" r="0.8"/>
</svg>
