<?xml version="1.0" encoding="utf-8"?>
<!-- Generator: Adobe Illustrator 17.1.0, SVG Export Plug-In . SVG Version: 6.00 Build 0)  -->
<!DOCTYPE svg PUBLIC "-//W3C//DTD SVG 1.1//EN" "http://www.w3.org/Graphics/SVG/1.1/DTD/svg11.dtd">
<svg version="1.1" id="Calque_1" xmlns="http://www.w3.org/2000/svg" xmlns:xlink="http://www.w3.org/1999/xlink" x="0px" y="0px"
	 viewBox="0 0 98.2 65.4" enable-background="new 0 0 98.2 65.4" xml:space="preserve">
<g>
	<path fill="#53B262" stroke="#51B160" stroke-width="2" stroke-miterlimit="10" d="M35,13.6c0,0,0.9-8.2,6.7-10
		c2.5-0.8,4.4-1.1,4.4,0c0,0.5-0.7,1.2-1.2,1.1c-1.1-0.2-2-0.7-4.5,1c-2.4,1.7-3.3,3.1-4.7,7.7L35,13.6z"/>
	<path fill="#E24030" d="M46.7,46.4c5.7-10.2,6.4-21.5-11.5-31.5C16.7,4.6,8,11.4,2.3,21.6c-1,1.8-1.7,3.8-2,5.8l0,0c0,0,0,0,0,0
		c-0.3,2-0.3,4.1,0,6.1c0,6.3,0,15.8,0.4,19.9C1.1,59.9,8,63.4,8,63.4c1.8,1.2,5.1,2.2,9.6,2s22.9-12.5,22.9-12.5l0,0
		C43.1,51.3,45.2,49.1,46.7,46.4z"/>
	<path fill="#23A552" d="M36.1,17.1c0,0-2.2,1.4-3.7,0.5c-1.5-0.8-6.7-3.8-6.7-3.8s-0.4-0.4-0.3-1.5l-4.4-2.5l-1.7-0.1
		c0,0-3.4-1.3-3-5.5c0,0,1.1,2.8,2.1,3.3c0,0-0.8-2.6-0.7-5.1c0,0,0.1-1.5-0.2-2.4c-0.2-0.9,2.2,3.6,2.2,3.6s4.4,2,5.4,3.8L27.1,4
		c0,0,0.6,2.2,1.4,2.8c0,0,1.4-1.2,3.7-1.6c0,0,0.6,1.8,1.7,3c1.1,1.2,0.8,4.5,0.8,4.5l0.3,0.4c0,0,2.1-2,7.9-0.4
		c0,0-0.1,1.1-0.4,1.4c0,0,2.2-0.2,6.1-0.3c0,0,1,3.7-3.1,5c0,0,1.8,1,3.5,0.1l-0.1,0.8c0,0,3.8,1.6,4.5,2.1
		c0.7,0.4,2.6,0.6,3.4,0.1c0,0-1.8,2.9-7.4,2c0,0,1.4,1.3,1.9,1.3c0.6,0-1.9,1.1-3.8-0.3l-1.2-1.7c0,0-1.8,0.3-3.1-0.4
		c-1.3-0.7-6-3.3-6-3.3S35.6,18,36.1,17.1z"/>
	<path fill="none" stroke="#202428" stroke-width="4" stroke-linecap="round" stroke-miterlimit="10" d="M45.4,5.1"/>
	
		<ellipse transform="matrix(0.8726 0.4883 -0.4883 0.8726 20.3509 -11.5601)" opacity="0.2" fill="#FFFFFF" cx="32.3" cy="33.2" rx="5.1" ry="4.1"/>
	<path opacity="0.2" fill="#FFFFFF" d="M46.7,46.4c4.1-7.3,5.6-15.1-0.3-22.6c1.3,12-2.6,25.1-14.8,30.3c-5.4,2.3-10.3,7.5-15.7,9
		c-3.2,0.9-6.7,0.2-9.8-1c0,0,0,0,0,0C7.2,63,8,63.4,8,63.4c1.8,1.2,5.1,2.2,9.6,2s22.9-12.5,22.9-12.5
		C43.1,51.3,45.2,49.1,46.7,46.4z"/>
</g>
<g>
	<path fill="#53B262" stroke="#51B160" stroke-width="2" stroke-miterlimit="10" d="M73.7,21.6c0,0-3.8-5.2-1.5-9.3
		c1-1.8,2.6-2.4,3.2-1.7c0.3,0.3-0.4,0.4-0.8,0.6c-0.7,0.5-1.5,0.6-2,2.9c-0.5,2.3-0.2,3.5,1.4,6.9L73.7,21.6z"/>
	<path fill="#E24030" d="M97.9,34.3c-2.1-8.9-7.7-15.8-23.4-12.1C58.3,26.1,56.9,34.7,59,43.6c0.4,1.6,1,3.1,1.9,4.4h0l0,0
		c0.9,1.3,2,2.5,3.3,3.6c3.4,3.7,8.5,9.1,10.8,11.3c3.7,3.4,9.6,1.8,9.6,1.8c1.7-0.3,4.1-1.4,6.6-4c2.5-2.6,6.6-19.4,6.6-19.4l0,0
		C98.4,39,98.4,36.7,97.9,34.3z"/>
	<path fill="#23A552" d="M76.1,23c0,0-0.6,2-1.9,2.3c-1.3,0.3-5.9,1.4-5.9,1.4s-0.5,0-1-0.7L63.5,27l-1,0.8c0,0-2.7,1-4.6-1.6
		c0,0,2.1,1,3,0.8c0,0-1.9-1.1-3.1-2.6c0,0-0.7-0.9-1.4-1.3c-0.6-0.4,3.2,0.9,3.2,0.9s3.6-1.2,5.1-0.7L64,20.3c0,0,1.5,0.9,2.3,0.9
		c0,0,0.2-1.4,1.3-2.9c0,0,1.3,0.7,2.6,0.8c1.3,0.1,2.9,2.2,2.9,2.2l0.4,0.1c0,0,0.1-2.3,4.3-4.4c0,0,0.5,0.7,0.5,1
		c0,0,1.2-1.3,3.4-3.4c0,0,2.6,1.6,0.9,4.5c0,0,1.6-0.4,2.1-1.8l0.4,0.5c0,0,3-1.1,3.7-1.2c0.6-0.1,1.8-1,2-1.8c0,0,0.5,2.6-3.2,5.1
		c0,0,1.5,0,1.8-0.3c0.3-0.3-0.5,1.7-2.3,1.9l-1.6-0.3c0,0-0.9,1.1-2,1.4c-1.1,0.3-5.2,1.3-5.2,1.3S76.3,23.8,76.1,23z"/>
	<path fill="none" stroke="#202428" stroke-width="4" stroke-linecap="round" stroke-miterlimit="10" d="M75.1,11.2"/>
	
		<ellipse transform="matrix(0.9727 -0.2322 0.2322 0.9727 -5.9397 20.9575)" opacity="0.2" fill="#FFFFFF" cx="86.1" cy="35.7" rx="3.3" ry="3"/>
	<path opacity="0.2" fill="#FFFFFF" d="M97.9,34.3c-1.5-6.4-4.8-11.7-12.2-12.9c7.1,6.2,11.9,15.9,7.6,25.4
		c-1.9,4.2-1.9,9.8-4.2,13.6c-1.4,2.2-3.8,3.7-6.2,4.6c0,0,0,0,0,0c1.1-0.1,1.8-0.3,1.8-0.3c1.7-0.3,4.1-1.4,6.6-4
		c2.5-2.6,6.6-19.4,6.6-19.4C98.4,39,98.4,36.7,97.9,34.3z"/>
</g>
<g>
	<path fill="none" stroke="#202428" stroke-width="4" stroke-linecap="round" stroke-miterlimit="10" d="M57.3,59.9"/>
</g>
</svg>
