<?xml version="1.0" encoding="utf-8"?>
<!-- Generator: Adobe Illustrator 17.1.0, SVG Export Plug-In . SVG Version: 6.00 Build 0)  -->
<!DOCTYPE svg PUBLIC "-//W3C//DTD SVG 1.1//EN" "http://www.w3.org/Graphics/SVG/1.1/DTD/svg11.dtd">
<svg version="1.1" id="Calque_1" xmlns="http://www.w3.org/2000/svg" xmlns:xlink="http://www.w3.org/1999/xlink" x="0px" y="0px"
	 viewBox="0 0 130.6 68.1" enable-background="new 0 0 130.6 68.1" xml:space="preserve">
<path fill="#23A552" d="M0,0c0,34.2,29.2,68.1,65.3,68.1c36.1,0,65.3-33.9,65.3-68.1L0,0z"/>
<path fill="#FFFFFF" d="M124.9,0c0,33.9-27.3,60.7-60.2,60.7C31.7,60.7,5.7,34,5.7,0L124.9,0z"/>
<path fill="#E24030" d="M12.1,0c0,31.7,23.8,57.4,53.2,57.4c29.4,0,53.2-25.7,53.2-57.4H12.1z"/>
<g>
	<ellipse transform="matrix(0.707 -0.7072 0.7072 0.707 -0.4426 20.768)" fill="#39485D" cx="24.8" cy="10.9" rx="1.7" ry="1.5"/>
	
		<ellipse transform="matrix(0.7071 -0.7072 0.7072 0.7071 -14.4387 37.0149)" fill="#39485D" cx="37.5" cy="35.9" rx="1.7" ry="1.5"/>
	<ellipse transform="matrix(0.7071 -0.7071 0.7071 0.7071 5.3509 31.6272)" fill="#39485D" cx="40.9" cy="9.4" rx="1.7" ry="1.3"/>
	<ellipse transform="matrix(0.7071 -0.7071 0.7071 0.7071 -4.691 34.433)" fill="#39485D" cx="39.2" cy="22.9" rx="2.7" ry="2.6"/>
	<ellipse transform="matrix(0.7071 -0.7071 0.7071 0.7071 6.1087 55.2659)" fill="#39485D" cx="69.8" cy="20.3" rx="2.2" ry="2"/>
	
		<ellipse transform="matrix(0.7071 -0.7071 0.7071 0.7071 -7.7879 61.5636)" fill="#39485D" cx="70.4" cy="40.2" rx="3.5" ry="3.6"/>
	<ellipse transform="matrix(0.7072 -0.707 0.707 0.7072 -2.8221 45.2559)" fill="#39485D" cx="53.2" cy="26" rx="1.3" ry="1"/>
	<circle fill="#39485D" cx="84" cy="5.4" r="2.1"/>
	<circle fill="#39485D" cx="90.5" cy="27" r="1.3"/>
	<circle fill="#39485D" cx="84.9" cy="17.8" r="1.3"/>
	<circle fill="#39485D" cx="93.1" cy="40.2" r="1.7"/>
	<circle fill="#39485D" cx="104.2" cy="12.3" r="1.8"/>
	<circle fill="#39485D" cx="61" cy="7.1" r="1.7"/>
</g>
<path opacity="0.2" fill="#FFFFFF" d="M111.8,0c-0.5,5-1.2,10.1-2.2,15c-2.1,10-6.8,12.5-13.5,19.4c-12.6,13-25.6,23.6-45.4,20.4
	c-1.1-0.2-2.3-0.5-3.7-0.9c5.7,2.3,11.9,3.5,18.3,3.5c29.4,0,53.2-25.7,53.2-57.4H111.8z"/>
</svg>
