<?xml version="1.0" encoding="utf-8"?>
<!-- Generator: Adobe Illustrator 17.1.0, SVG Export Plug-In . SVG Version: 6.00 Build 0)  -->
<!DOCTYPE svg PUBLIC "-//W3C//DTD SVG 1.1//EN" "http://www.w3.org/Graphics/SVG/1.1/DTD/svg11.dtd">
<svg version="1.1" id="Calque_1" xmlns="http://www.w3.org/2000/svg" xmlns:xlink="http://www.w3.org/1999/xlink" x="0px" y="0px"
	 viewBox="0 0 96 106" enable-background="new 0 0 96 106" xml:space="preserve">
<g>
	<path fill="#E9473C" d="M37.1,28.8c-2.4-0.9-4.6-2.1-6.5-3.8C32.8,27,35,28.2,37.1,28.8z"/>
	<path opacity="0.2" fill="#FFFFFF" d="M37.1,28.8c-2.4-0.9-4.6-2.1-6.5-3.8C32.8,27,35,28.2,37.1,28.8z"/>
	<path fill="#E24030" d="M79.9,32.7C74.6,28,67.5,25.1,59.4,25c-4.9,0.3-9.7,0.6-14.6,0.9c-4.9-0.3-9.7-0.7-14.6-0.9
		C11.4,25.3-2,40.3,0.2,57.5C1,64,1.1,65.7,2.4,72.1c3.6,17.5,13.9,33.8,24.4,33.8c6.3,0,12.9-1.4,17-1.3c3.8,0,7,0.6,7,0.6
		l11.9,0.7c10.5-0.3,21.1-15,24.2-32.4c1.2-6.9,1.6-9.1,2.4-16C90.6,47.8,86.8,38.7,79.9,32.7z M30.6,25c1.9,1.7,4.1,2.9,6.5,3.8
		C35,28.2,32.8,27,30.6,25z"/>
	<path opacity="0.2" fill="#FFFFFF" d="M87,73.6c0.8-7,1.6-9.1,2.4-16c1.3-9.8-2.5-18.8-9.4-24.9c-1.2-0.9-2.5-1.7-3.9-2.7
		c-16.5-10.8-27.4,2.1-38.9-1.2c13.5,4.9,32.8-1.8,39.6,10.6c4.7,8.6,7.6,16,6.5,25.9c-2.9,24.8-8.8,34-32.4,39.9l11.9,0.7
		C73.2,105.7,84.8,90.9,87,73.6z"/>
</g>
<path opacity="0.15" fill="#FFFFFF" d="M69,59c-1.5,6-6.3,9.9-10.7,8.7c-4.4-1.2-6.7-7-5-13c1.6-6,6.4-9.9,10.7-8.7
	C68.2,47.2,70.5,53.1,69,59z"/>
<path fill="#964321" d="M42.9,27.4c-0.5-0.9-1.8-11.9-6.7-13c-4.8-1-3.6,2.1-3.6,2.1c8.2,5.5,7.6,11,7.6,11H43L42.9,27.4z"/>
<path fill="#5A9E38" d="M43.2,27.4"/>
<g>
	<path fill="#23A552" d="M83.2,14.2c5.5-3.2,9.2-8.7,11-11.8C63.3-4.8,55.5,5.5,51.7,16c-1.9,5.2-3.9,7.7-5.5,8.9
		c-1.8,1.3-3,2.5-3,2.5l3.8-2.1c1.8-1.6,11.1-5.4,15.3-6.2C66.9,18.2,75.1,18.9,83.2,14.2z"/>
	<path fill="#23A552" d="M81.2,19.1C89.5,16.3,96,2.8,96,2.8c-0.6-0.2-1.2-0.3-1.8-0.4c-1.8,3.1-5.5,8.6-11,11.8
		c-8.1,4.7-16.3,4-20.9,4.8C58,19.8,48.8,23.6,47,25.2l3.2-1.8C57.6,20.5,73,21.8,81.2,19.1z"/>
	<path opacity="0.2" fill="#FFFFFF" d="M81.2,19.1C89.5,16.3,96,2.8,96,2.8c-0.6-0.2-1.2-0.3-1.8-0.4c-1.8,3.1-5.5,8.6-11,11.8
		c-8.1,4.7-16.3,4-20.9,4.8C58,19.8,48.8,23.6,47,25.2l3.2-1.8C57.6,20.5,73,21.8,81.2,19.1z"/>
</g>
</svg>
